<svg xmlns="http://www.w3.org/2000/svg" width="1920" height="1080" viewBox="0 0 1920 1080">
  <defs>
    <linearGradient id="g1" x1="0" y1="0" x2="0" y2="1">
      <stop offset="0%" stop-color="#f5f9ff"/>
      <stop offset="100%" stop-color="#ffffff"/>
    </linearGradient>
    <linearGradient id="g2" x1="0" y1="0" x2="1" y2="1">
      <stop offset="0%" stop-color="#38a9f3" stop-opacity="0.12"/>
      <stop offset="100%" stop-color="#56c416" stop-opacity="0.12"/>
    </linearGradient>
  </defs>
  <rect width="1920" height="1080" fill="url(#g1)"/>
  <g opacity="0.6">
    <circle cx="220" cy="200" r="140" fill="#38a9f3" opacity="0.08"/>
    <circle cx="1750" cy="180" r="110" fill="#56c416" opacity="0.08"/>
    <circle cx="1680" cy="880" r="160" fill="#f59e0b" opacity="0.08"/>
    <circle cx="260" cy="860" r="120" fill="#a5b4fc" opacity="0.08"/>
  </g>
  <rect x="0" y="0" width="1920" height="1080" fill="url(#g2)"/>
  <g transform="translate(200,220)" opacity="0.25">
    <rect x="0" y="0" rx="24" ry="24" width="320" height="220" fill="#38a9f3"/>
    <circle cx="110" cy="90" r="14" fill="#ffffff"/>
    <circle cx="210" cy="90" r="14" fill="#ffffff"/>
    <path d="M80,140 C120,120 200,120 240,140" stroke="#ffffff" stroke-width="10" stroke-linecap="round" fill="none"/>
  </g>
  <g transform="translate(1420,260)" opacity="0.22">
    <rect x="0" y="0" width="360" height="220" rx="20" fill="#f59e0b"/>
    <rect x="40" y="40" width="120" height="140" fill="#ffffff" opacity="0.9"/>
    <rect x="200" y="40" width="120" height="140" fill="#ffffff" opacity="0.9"/>
    <rect x="70" y="160" width="60" height="10" fill="#38a9f3"/>
    <rect x="230" y="160" width="60" height="10" fill="#38a9f3"/>
  </g>
  <g transform="translate(780,760)" opacity="0.2">
    <circle cx="0" cy="0" r="80" fill="#56c416"/>
    <circle cx="120" cy="-40" r="60" fill="#22c55e"/>
    <circle cx="180" cy="20" r="50" fill="#4ade80"/>
  </g>
</svg>
